<?xml version="1.0" standalone="no"?>
<!DOCTYPE svg PUBLIC "-//W3C//DTD SVG 20010904//EN"
 "http://www.w3.org/TR/2001/REC-SVG-20010904/DTD/svg10.dtd">
<svg version="1.0" xmlns="http://www.w3.org/2000/svg"
 width="566.000000pt" height="566.000000pt" viewBox="0 0 566.000000 566.000000"
 preserveAspectRatio="xMidYMid meet">
<metadata>
Created by potrace 1.14, written by Peter Selinger 2001-2017
</metadata>
<g transform="translate(0.000000,566.000000) scale(0.100000,-0.100000)"
fill="#000000" stroke="none">
<path d="M3458 5540 l-3 -115 -82 0 c-68 1 -83 -2 -84 -15 0 -8 -1 -214 -1
-457 l-1 -443 -113 0 -114 0 -2 343 -3 342 -75 0 c-41 1 -80 4 -85 7 -6 3 -9
51 -9 111 1 71 -2 107 -10 109 -6 2 -31 4 -56 4 l-45 -1 -2 -105 c-1 -58 -2
-110 -2 -115 -1 -6 -34 -10 -83 -10 l-83 0 -2 -310 c-1 -170 -2 -325 -3 -342
l0 -33 -114 0 -113 0 -1 223 c0 122 -1 226 -1 230 -1 5 -20 8 -43 7 -24 -1
-62 -1 -86 -1 l-43 1 1 53 c1 28 1 79 1 113 l-1 61 -55 0 c-63 0 -57 13 -57
-139 l0 -88 -62 -1 c-33 -1 -72 -2 -86 -2 l-25 -2 0 -227 0 -228 -415 -1
c-451 0 -470 -1 -578 -30 -332 -88 -590 -365 -656 -704 -13 -70 -15 -211 -13
-1095 l2 -1015 23 -80 c104 -372 424 -644 789 -672 l83 -6 2 -449 3 -448 674
449 673 448 1032 1 c567 0 1056 3 1086 7 224 27 443 149 586 327 96 119 169
277 191 416 10 62 10 2043 0 2107 -33 208 -170 429 -351 564 -115 87 -288 158
-424 175 -21 3 -226 5 -457 5 l-420 1 0 448 c1 246 0 452 -2 457 -2 6 -39 10
-87 10 l-84 0 1 113 c1 61 0 112 -3 113 -3 0 -28 2 -57 3 l-52 1 -3 -115z
m1167 -1504 c150 -44 260 -151 307 -299 19 -60 19 -94 19 -1027 0 -1050 1
-1018 -57 -1117 -58 -100 -143 -168 -259 -209 -46 -16 -128 -18 -1161 -18
l-1111 -1 -377 -251 -376 -252 0 249 c0 137 -3 250 -7 250 -5 1 -125 2 -268 3
-279 3 -296 5 -398 59 -59 31 -145 115 -173 170 -52 99 -53 111 -54 550 -3
1205 -1 1525 11 1573 43 177 202 313 389 333 30 3 820 6 1755 5 1586 -1 1704
-2 1760 -18z"/>
<path d="M1560 3032 c-131 -50 -215 -156 -227 -286 -19 -208 132 -376 337
-377 125 -1 243 69 302 178 24 43 31 70 42 147 5 37 -13 118 -40 172 -30 62
-88 118 -160 153 -65 33 -188 39 -254 13z m165 -192 c104 -40 118 -192 22
-250 -85 -52 -198 -2 -214 95 -7 46 2 77 34 115 40 48 98 63 158 40z"/>
<path d="M2706 3028 c-71 -28 -152 -103 -186 -174 -35 -74 -39 -190 -9 -269
29 -79 114 -164 191 -193 204 -77 419 39 462 249 31 154 -46 307 -189 378 -72
36 -188 39 -269 9z"/>
<path d="M3905 3041 c-121 -31 -217 -128 -248 -251 -40 -155 40 -319 189 -390
109 -52 230 -42 334 28 270 181 150 605 -175 618 -38 2 -83 0 -100 -5z m153
-211 c94 -57 94 -188 0 -244 -61 -37 -160 -9 -193 54 -65 126 73 263 193 190z"/>
</g>
</svg>
